<svg width="24" height="24" viewBox="0 0 24 24" fill="none" xmlns="http://www.w3.org/2000/svg">
<path d="M22.7426 5.79162L18.208 1.25712C17.8652 0.914524 17.3105 0.914266 16.9676 1.25651L2.69122 15.504C2.57624 15.6187 2.4952 15.7632 2.45747 15.9212L1.02399 21.9184C0.953175 22.2148 1.04156 22.5272 1.25714 22.7428C1.4236 22.9093 1.64768 23 1.87765 23C1.9458 23 2.01429 22.9918 2.08154 22.9757L8.07883 21.5422C8.23683 21.5045 8.38133 21.4238 8.49601 21.3085L22.7432 7.03204C23.0854 6.68919 23.0852 6.13391 22.7426 5.79162ZM7.42936 19.8928L3.06363 20.9364L4.10687 16.5707L17.5873 3.11831L20.8817 6.41273L7.42936 19.8928Z" fill="#8FA5B0"/>
<path d="M14.8432 4.59231L13.6023 5.83325L18.1656 10.3966L19.4066 9.15563L14.8432 4.59231Z" fill="#8FA5B0"/>
<path d="M15.8841 6.8742L4.91431 17.844L6.15525 19.0849L17.125 8.11515L15.8841 6.8742Z" fill="#8FA5B0"/>
<path d="M3.90232 15.5629L2.66138 16.8038L7.19575 21.3382L8.43669 20.0973L3.90232 15.5629Z" fill="#8FA5B0"/>
</svg>
