<svg width="24" height="23" viewBox="0 0 24 23" fill="none" xmlns="http://www.w3.org/2000/svg">
<mask id="path-1-outside-1" maskUnits="userSpaceOnUse" x="0" y="0" width="24" height="23" fill="black">
<rect fill="white" width="24" height="23"/>
<path fill-rule="evenodd" clip-rule="evenodd" d="M18.4086 1.09632C18.6329 0.967457 18.909 0.96793 19.1329 1.09753C19.357 1.22734 19.4948 1.46668 19.4948 1.72535V5.6662H19.9296C21.6226 5.6662 22.9999 7.0435 22.9999 8.73658C22.9999 10.4297 21.6226 11.807 19.9296 11.807H19.4948V16.7388C19.4948 16.9992 19.355 17.2397 19.1288 17.3686C19.0173 17.4321 18.8935 17.464 18.7695 17.464C18.6419 17.464 18.514 17.4302 18.4003 17.363C18.3388 17.3268 12.2297 13.7354 9.12319 13.7168V13.7168H8.55106C8.63259 16.3187 9.3519 18.0176 9.61379 18.4265C10.0437 19.051 10.0385 19.8645 9.58762 20.4793C9.56588 20.5088 9.54194 20.5368 9.51607 20.5629C9.3894 20.6896 9.23295 20.8023 9.05067 20.8975C8.35225 21.3407 7.35544 21.6463 6.30476 21.7384C6.24555 21.7464 6.18655 21.7502 6.12828 21.7502C5.513 21.7502 4.95573 21.325 4.7778 20.6932L2.52874 13.7168H2.45056C1.63728 13.7168 1 13.0796 1 12.2663V6.19805C1 5.38477 1.63728 4.74749 2.45056 4.74749H9.08676L9.09902 4.74739C11.5186 4.74739 16.6393 2.11195 18.4086 1.09632ZM19.4948 10.3564H19.9296C20.8226 10.3564 21.5494 9.62965 21.5494 8.73658C21.5494 7.8435 20.8226 7.11676 19.9296 7.11676H19.4948V10.3564ZM8.37374 6.19805V12.2663H2.45056V6.19805H8.37374ZM4.05304 13.7168H7.09981C7.18118 16.5765 7.96681 18.5447 8.40523 19.2287C8.4833 19.3423 8.49809 19.4661 8.4485 19.5705C8.42697 19.5853 8.3987 19.6022 8.36411 19.6194C8.3397 19.6317 8.31598 19.645 8.29325 19.66C8.10539 19.7821 7.39872 20.1875 6.1725 20.2939C6.17019 20.2857 6.16776 20.2776 6.16529 20.2695L6.1633 20.263L4.05304 13.7168ZM9.8243 12.3121C12.4849 12.6293 16.2131 14.5027 18.0442 15.4983V2.95084C16.1933 3.93604 12.3974 5.81668 9.8243 6.14767V12.3121Z"/>
</mask>
<path fill-rule="evenodd" clip-rule="evenodd" d="M18.4086 1.09632C18.6329 0.967457 18.909 0.96793 19.1329 1.09753C19.357 1.22734 19.4948 1.46668 19.4948 1.72535V5.6662H19.9296C21.6226 5.6662 22.9999 7.0435 22.9999 8.73658C22.9999 10.4297 21.6226 11.807 19.9296 11.807H19.4948V16.7388C19.4948 16.9992 19.355 17.2397 19.1288 17.3686C19.0173 17.4321 18.8935 17.464 18.7695 17.464C18.6419 17.464 18.514 17.4302 18.4003 17.363C18.3388 17.3268 12.2297 13.7354 9.12319 13.7168V13.7168H8.55106C8.63259 16.3187 9.3519 18.0176 9.61379 18.4265C10.0437 19.051 10.0385 19.8645 9.58762 20.4793C9.56588 20.5088 9.54194 20.5368 9.51607 20.5629C9.3894 20.6896 9.23295 20.8023 9.05067 20.8975C8.35225 21.3407 7.35544 21.6463 6.30476 21.7384C6.24555 21.7464 6.18655 21.7502 6.12828 21.7502C5.513 21.7502 4.95573 21.325 4.7778 20.6932L2.52874 13.7168H2.45056C1.63728 13.7168 1 13.0796 1 12.2663V6.19805C1 5.38477 1.63728 4.74749 2.45056 4.74749H9.08676L9.09902 4.74739C11.5186 4.74739 16.6393 2.11195 18.4086 1.09632ZM19.4948 10.3564H19.9296C20.8226 10.3564 21.5494 9.62965 21.5494 8.73658C21.5494 7.8435 20.8226 7.11676 19.9296 7.11676H19.4948V10.3564ZM8.37374 6.19805V12.2663H2.45056V6.19805H8.37374ZM4.05304 13.7168H7.09981C7.18118 16.5765 7.96681 18.5447 8.40523 19.2287C8.4833 19.3423 8.49809 19.4661 8.4485 19.5705C8.42697 19.5853 8.3987 19.6022 8.36411 19.6194C8.3397 19.6317 8.31598 19.645 8.29325 19.66C8.10539 19.7821 7.39872 20.1875 6.1725 20.2939C6.17019 20.2857 6.16776 20.2776 6.16529 20.2695L6.1633 20.263L4.05304 13.7168ZM9.8243 12.3121C12.4849 12.6293 16.2131 14.5027 18.0442 15.4983V2.95084C16.1933 3.93604 12.3974 5.81668 9.8243 6.14767V12.3121Z" fill="#8FA5B0"/>
<path d="M19.1329 1.09753L19.2832 0.837923L19.2832 0.837891L19.1329 1.09753ZM18.4086 1.09632L18.5579 1.3565L18.558 1.35647L18.4086 1.09632ZM19.4948 1.72535L19.1948 1.7253V1.72535H19.4948ZM19.4948 5.6662H19.1948V5.9662H19.4948V5.6662ZM19.4948 11.807V11.507H19.1948V11.807H19.4948ZM19.1288 17.3686L18.9803 17.1079L18.9802 17.108L19.1288 17.3686ZM18.4003 17.363L18.5531 17.1048L18.5524 17.1044L18.4003 17.363ZM9.12319 13.7168L9.12499 13.4168L8.82319 13.415V13.7168H9.12319ZM9.12319 13.7168V14.0168H9.42319V13.7168H9.12319ZM8.55106 13.7168V13.4168H8.24151L8.2512 13.7262L8.55106 13.7168ZM9.61379 18.4265L9.36102 18.5884L9.36667 18.5966L9.61379 18.4265ZM9.58762 20.4793L9.82917 20.6572L9.82952 20.6567L9.58762 20.4793ZM9.51607 20.5629L9.72821 20.7751L9.72925 20.774L9.51607 20.5629ZM9.05067 20.8975L8.91172 20.6316L8.90056 20.6375L8.88994 20.6442L9.05067 20.8975ZM6.30476 21.7384L6.27852 21.4392L6.26463 21.4411L6.30476 21.7384ZM4.7778 20.6932L5.06676 20.6119L5.06333 20.6012L4.7778 20.6932ZM2.52874 13.7168L2.81427 13.6248L2.74723 13.4168H2.52874V13.7168ZM9.08676 4.74749V5.0475L9.08924 5.04748L9.08676 4.74749ZM9.09902 4.74739V4.44738L9.09654 4.4474L9.09902 4.74739ZM19.4948 10.3564H19.1948V10.6564H19.4948V10.3564ZM19.4948 7.11676V6.81676H19.1948V7.11676H19.4948ZM8.37374 12.2663V12.5663H8.67374V12.2663H8.37374ZM8.37374 6.19805H8.67374V5.89805H8.37374V6.19805ZM2.45056 12.2663H2.15056V12.5663H2.45056V12.2663ZM2.45056 6.19805V5.89805H2.15056V6.19805H2.45056ZM7.09981 13.7168L7.39969 13.7083L7.39139 13.4168H7.09981V13.7168ZM4.05304 13.7168V13.4168H3.64112L3.76751 13.8089L4.05304 13.7168ZM8.40523 19.2287L8.15253 19.3907L8.15798 19.3986L8.40523 19.2287ZM8.4485 19.5705L8.61797 19.8181L8.68479 19.7723L8.71952 19.6992L8.4485 19.5705ZM8.36411 19.6194L8.23061 19.3507L8.22881 19.3516L8.36411 19.6194ZM8.29325 19.66L8.45672 19.9116L8.45847 19.9104L8.29325 19.66ZM6.1725 20.2939L5.88368 20.375L5.95089 20.6142L6.19842 20.5928L6.1725 20.2939ZM6.16529 20.2695L5.87815 20.3564L5.8782 20.3566L6.16529 20.2695ZM6.1633 20.263L6.45048 20.176L6.44883 20.1709L6.1633 20.263ZM18.0442 15.4983L17.9009 15.7618L18.3442 16.0029V15.4983H18.0442ZM9.8243 12.3121H9.5243V12.5785L9.78879 12.61L9.8243 12.3121ZM18.0442 2.95084H18.3442V2.45131L17.9033 2.68601L18.0442 2.95084ZM9.8243 6.14767L9.78603 5.85012L9.5243 5.88379V6.14767H9.8243ZM19.2832 0.837891C18.9666 0.654649 18.5764 0.654001 18.2591 0.836172L18.558 1.35647C18.6895 1.28091 18.8514 1.28121 18.9826 1.35716L19.2832 0.837891ZM19.7948 1.7254C19.7948 1.35971 19.6 1.0214 19.2832 0.837923L18.9825 1.35713C19.114 1.43327 19.1948 1.57364 19.1948 1.7253L19.7948 1.7254ZM19.7948 5.6662V1.72535H19.1948V5.6662H19.7948ZM19.9296 5.3662H19.4948V5.9662H19.9296V5.3662ZM23.2999 8.73658C23.2999 6.87782 21.7883 5.3662 19.9296 5.3662V5.9662C21.457 5.9662 22.6999 7.20918 22.6999 8.73658H23.2999ZM19.9296 12.107C21.7883 12.107 23.2999 10.5953 23.2999 8.73658H22.6999C22.6999 10.264 21.4569 11.507 19.9296 11.507V12.107ZM19.4948 12.107H19.9296V11.507H19.4948V12.107ZM19.7948 16.7388V11.807H19.1948V16.7388H19.7948ZM19.2772 17.6293C19.5972 17.447 19.7948 17.1069 19.7948 16.7388H19.1948C19.1948 16.8914 19.1128 17.0324 18.9803 17.1079L19.2772 17.6293ZM18.7695 17.764C18.9451 17.764 19.1202 17.7188 19.2774 17.6292L18.9802 17.108C18.9144 17.1454 18.8419 17.164 18.7695 17.164V17.764ZM18.2476 17.6212C18.4082 17.7162 18.589 17.764 18.7695 17.764V17.164C18.6948 17.164 18.6197 17.1442 18.5531 17.1048L18.2476 17.6212ZM9.12139 14.0168C9.84988 14.0212 10.7781 14.237 11.779 14.5736C12.7748 14.9085 13.8202 15.3552 14.776 15.8048C16.6872 16.7038 18.2208 17.6054 18.2483 17.6216L18.5524 17.1044C18.5184 17.0843 16.9667 16.1722 15.0314 15.2618C14.0638 14.8067 12.9957 14.3498 11.9703 14.0049C10.9502 13.6618 9.94977 13.4218 9.12499 13.4168L9.12139 14.0168ZM9.42319 13.7168V13.7168H8.82319V13.7168H9.42319ZM8.55106 14.0168H9.12319V13.4168H8.55106V14.0168ZM9.86641 18.2647C9.63994 17.9111 8.93115 16.2679 8.85091 13.7074L8.2512 13.7262C8.33403 16.3694 9.06386 18.1241 9.36116 18.5883L9.86641 18.2647ZM9.82952 20.6567C10.3571 19.9374 10.362 18.9844 9.8609 18.2564L9.36667 18.5966C9.72529 19.1176 9.71995 19.7916 9.34571 20.3018L9.82952 20.6567ZM9.72925 20.774C9.76545 20.7374 9.79886 20.6983 9.82917 20.6572L9.34606 20.3013C9.3329 20.3192 9.31843 20.3361 9.30289 20.3518L9.72925 20.774ZM9.18963 21.1634C9.39519 21.056 9.57725 20.926 9.72821 20.7751L9.30394 20.3508C9.20155 20.4532 9.07071 20.5486 8.91172 20.6316L9.18963 21.1634ZM6.33096 22.0372C7.41679 21.942 8.46289 21.6258 9.21141 21.1508L8.88994 20.6442C8.24161 21.0556 7.2941 21.3505 6.27855 21.4395L6.33096 22.0372ZM6.12828 22.0502C6.19982 22.0502 6.27222 22.0455 6.34488 22.0357L6.26463 21.4411C6.21887 21.4473 6.17328 21.4503 6.12828 21.4503V22.0502ZM4.48903 20.7746C4.70169 21.5296 5.37246 22.0502 6.12828 22.0502V21.4503C5.65354 21.4503 5.20977 21.1204 5.06656 20.6119L4.48903 20.7746ZM2.24322 13.8089L4.49227 20.7853L5.06333 20.6012L2.81427 13.6248L2.24322 13.8089ZM2.45056 14.0168H2.52874V13.4168H2.45056V14.0168ZM0.7 12.2663C0.7 13.2452 1.47159 14.0168 2.45056 14.0168V13.4168C1.80296 13.4168 1.3 12.9139 1.3 12.2663H0.7ZM0.7 6.19805V12.2663H1.3V6.19805H0.7ZM2.45056 4.44749C1.47159 4.44749 0.7 5.21908 0.7 6.19805H1.3C1.3 5.55045 1.80296 5.04749 2.45056 5.04749V4.44749ZM9.08676 4.44749H2.45056V5.04749H9.08676V4.44749ZM9.09654 4.4474L9.08428 4.4475L9.08924 5.04748L9.10151 5.04738L9.09654 4.4474ZM18.2592 0.836144C17.3825 1.33939 15.6699 2.24696 13.8778 3.02768C12.9819 3.418 12.0706 3.77463 11.2367 4.03319C10.3978 4.29334 9.65841 4.44739 9.09902 4.44739V5.04739C9.74942 5.04739 10.5575 4.87201 11.4144 4.60627C12.2765 4.33895 13.2097 3.97324 14.1175 3.57775C15.933 2.78684 17.6654 1.86887 18.5579 1.3565L18.2592 0.836144ZM19.9296 10.0564H19.4948V10.6564H19.9296V10.0564ZM21.2494 8.73658C21.2494 9.46397 20.657 10.0564 19.9296 10.0564V10.6564C20.9883 10.6564 21.8494 9.79534 21.8494 8.73658H21.2494ZM19.9296 7.41676C20.657 7.41676 21.2494 8.00919 21.2494 8.73658H21.8494C21.8494 7.67782 20.9883 6.81676 19.9296 6.81676V7.41676ZM19.4948 7.41676H19.9296V6.81676H19.4948V7.41676ZM19.7948 10.3564V7.11676H19.1948V10.3564H19.7948ZM8.67374 12.2663V6.19805H8.07374V12.2663H8.67374ZM2.45056 12.5663H8.37374V11.9663H2.45056V12.5663ZM2.15056 6.19805V12.2663H2.75056V6.19805H2.15056ZM8.37374 5.89805H2.45056V6.49805H8.37374V5.89805ZM7.09981 13.4168H4.05304V14.0168H7.09981V13.4168ZM8.6578 19.0668C8.25447 18.4375 7.47984 16.525 7.39969 13.7083L6.79993 13.7254C6.88253 16.6279 7.67916 18.6518 8.15266 19.3906L8.6578 19.0668ZM8.71952 19.6992C8.82346 19.4802 8.77904 19.2429 8.65247 19.0588L8.15798 19.3986C8.17333 19.4209 8.17645 19.4354 8.17704 19.4402C8.17734 19.4426 8.17714 19.4434 8.1772 19.4429C8.17723 19.4428 8.17728 19.4425 8.17736 19.4422C8.17745 19.442 8.17751 19.4418 8.17748 19.4419L8.71952 19.6992ZM8.4976 19.8881C8.54384 19.8651 8.58423 19.8412 8.61797 19.8181L8.27903 19.323C8.26972 19.3294 8.25356 19.3393 8.23062 19.3507L8.4976 19.8881ZM8.45847 19.9104C8.46917 19.9034 8.48237 19.8958 8.49941 19.8872L8.22881 19.3516C8.19703 19.3677 8.16279 19.3867 8.12804 19.4096L8.45847 19.9104ZM6.19842 20.5928C7.48189 20.4815 8.2351 20.0556 8.45672 19.9116L8.12979 19.4085C7.97568 19.5086 7.31554 19.8936 6.14658 19.995L6.19842 20.5928ZM5.8782 20.3566C5.8808 20.3652 5.88235 20.3703 5.88368 20.375L6.46131 20.2127C6.45804 20.2011 6.45471 20.1901 6.45238 20.1825L5.8782 20.3566ZM5.87617 20.3499L5.87815 20.3564L6.45242 20.1826L6.45044 20.176L5.87617 20.3499ZM3.76751 13.8089L5.87777 20.355L6.44883 20.1709L4.33857 13.6248L3.76751 13.8089ZM18.1875 15.2347C17.2672 14.7343 15.868 14.0122 14.3623 13.3746C12.8618 12.7391 11.2331 12.1779 9.85982 12.0142L9.78879 12.61C11.0761 12.7635 12.6419 13.2976 14.1283 13.9271C15.6096 14.5543 16.9901 15.2667 17.9009 15.7618L18.1875 15.2347ZM17.7442 2.95084V15.4983H18.3442V2.95084H17.7442ZM9.86258 6.44522C11.1912 6.27431 12.8143 5.70797 14.3218 5.07092C15.8351 4.43148 17.2554 3.71055 18.1852 3.21566L17.9033 2.68601C16.9821 3.17633 15.579 3.88832 14.0883 4.51824C12.5919 5.15056 11.0305 5.69004 9.78603 5.85012L9.86258 6.44522ZM10.1243 12.3121V6.14767H9.5243V12.3121H10.1243Z" fill="#8FA5B0" mask="url(#path-1-outside-1)"/>
</svg>
