<svg width="22" height="22" viewBox="0 0 22 22" fill="none" xmlns="http://www.w3.org/2000/svg">
<path d="M14.7179 8.38063H14.7302L14.7424 8.37912L19.2252 7.82539C19.7909 7.81849 20.2449 7.36018 20.2449 6.79282V1.54628C20.2449 0.974595 19.7839 0.513623 19.2122 0.513623C18.6406 0.513623 18.1796 0.974594 18.1796 1.54628V4.03132C16.2885 2.15965 13.7342 1.08669 11 1.08669C5.37526 1.08669 0.8 5.66195 0.8 11.2867C0.8 16.9114 5.37526 21.4867 11 21.4867C16.6247 21.4867 21.2 16.9114 21.2 11.2867C21.2 10.715 20.739 10.254 20.1673 10.254C19.5957 10.254 19.1347 10.715 19.1347 11.2867C19.1347 15.7722 15.4855 19.4214 11 19.4214C6.51454 19.4214 2.86531 15.7722 2.86531 11.2867C2.86531 6.80123 6.51454 3.152 11 3.152C13.3362 3.152 15.5084 4.13308 17.0383 5.83302L14.6964 6.31554C14.1347 6.32689 13.6852 6.78346 13.6852 7.34798C13.6852 7.91966 14.1462 8.38063 14.7179 8.38063Z" fill="#8FA5B0" stroke="#8FA5B0" stroke-width="0.4"/>
</svg>
